<svg id="Ebene_1" data-name="Ebene 1" xmlns="http://www.w3.org/2000/svg" viewBox="0 0 114 36.98"><defs><style>.cls-1{fill:#fff;}</style></defs><title>logo_app_store</title><path d="M8.32,37.76H7.45a13.46,13.46,0,0,1-1.81-.16A5.79,5.79,0,0,1,4,37.06,5.41,5.41,0,0,1,1.7,34.73a5.53,5.53,0,0,1-.52-1.61A11.39,11.39,0,0,1,1,31.31c0-.2,0-.88,0-.88V8.1s0-.67,0-.87a11.39,11.39,0,0,1,.16-1.81,5.35,5.35,0,0,1,1.5-3A5.23,5.23,0,0,1,4,1.48,5.38,5.38,0,0,1,5.64,1,11.39,11.39,0,0,1,7.45.79H108.56a11.16,11.16,0,0,1,1.79.16,5.51,5.51,0,0,1,1.62.53,5,5,0,0,1,1.34,1,5.17,5.17,0,0,1,1,1.36,5.6,5.6,0,0,1,.52,1.59A12.84,12.84,0,0,1,115,7.24V8.1c0,.36,0,.7,0,1.05V29.38c0,.36,0,.7,0,1v.9a12.3,12.3,0,0,1-.17,1.79,5.6,5.6,0,0,1-.52,1.62,5.26,5.26,0,0,1-1,1.34,5.46,5.46,0,0,1-1.35,1,5.93,5.93,0,0,1-1.62.53,13.18,13.18,0,0,1-1.8.16H8.32Z" transform="translate(-1 -0.78)"/><g id="_Gruppe_" data-name="&lt;Gruppe&gt;"><g id="_Gruppe_2" data-name="&lt;Gruppe&gt;"><g id="_Gruppe_3" data-name="&lt;Gruppe&gt;"><path id="_Pfad_" data-name="&lt;Pfad&gt;" class="cls-1" d="M24.1,19.56a4.81,4.81,0,0,1,2.28-4,4.91,4.91,0,0,0-3.86-2.08c-1.62-.17-3.19,1-4,1s-2.12-.95-3.49-.93a5.13,5.13,0,0,0-4.32,2.64c-1.87,3.24-.48,8,1.31,10.61.9,1.28,1.95,2.71,3.32,2.66s1.84-.85,3.46-.85,2.07.85,3.47.82,2.34-1.29,3.21-2.58a10.86,10.86,0,0,0,1.47-3A4.61,4.61,0,0,1,24.1,19.56Z" transform="translate(-1 -0.78)"/><path id="_Pfad_2" data-name="&lt;Pfad&gt;" class="cls-1" d="M21.46,11.74a4.71,4.71,0,0,0,1.08-3.38A4.79,4.79,0,0,0,19.44,10a4.51,4.51,0,0,0-1.11,3.25A4,4,0,0,0,21.46,11.74Z" transform="translate(-1 -0.78)"/></g></g><path class="cls-1" d="M41.05,26.17H36.48l-1.1,3.24H33.44l4.34-12h2l4.33,12h-2ZM37,24.67h3.63l-1.79-5.26h0Z" transform="translate(-1 -0.78)"/><path class="cls-1" d="M53.48,25c0,2.72-1.45,4.47-3.65,4.47A3,3,0,0,1,47.08,28h0v4.33h-1.8V20.66H47v1.46h0a3.11,3.11,0,0,1,2.79-1.55C52,20.57,53.48,22.33,53.48,25Zm-1.84,0c0-1.77-.92-2.94-2.31-2.94S47,23.29,47,25,48,28,49.33,28,51.64,26.83,51.64,25Z" transform="translate(-1 -0.78)"/><path class="cls-1" d="M63.12,25c0,2.72-1.46,4.47-3.65,4.47A3,3,0,0,1,56.71,28h0v4.33h-1.8V20.66h1.74v1.46h0a3.09,3.09,0,0,1,2.78-1.55C61.65,20.57,63.12,22.33,63.12,25Zm-1.85,0c0-1.77-.91-2.94-2.31-2.94s-2.3,1.19-2.3,2.94S57.59,28,59,28,61.27,26.83,61.27,25Z" transform="translate(-1 -0.78)"/><path class="cls-1" d="M69.49,26.07c.13,1.19,1.28,2,2.87,2s2.6-.78,2.6-1.85-.66-1.49-2.21-1.88l-1.56-.37C69,23.41,68,22.38,68,20.7c0-2.07,1.81-3.49,4.37-3.49s4.28,1.42,4.33,3.49H74.85c-.11-1.19-1.1-1.92-2.54-1.92s-2.44.73-2.44,1.8c0,.85.63,1.35,2.18,1.73l1.32.32c2.46.59,3.49,1.58,3.49,3.33,0,2.25-1.79,3.65-4.64,3.65-2.66,0-4.46-1.37-4.57-3.54Z" transform="translate(-1 -0.78)"/><path class="cls-1" d="M80.73,18.59v2.07H82.4v1.42H80.73v4.83c0,.75.34,1.1,1.07,1.1.18,0,.47,0,.59,0v1.41a5,5,0,0,1-1,.08c-1.77,0-2.46-.66-2.46-2.36v-5H77.66V20.66h1.27V18.59Z" transform="translate(-1 -0.78)"/><path class="cls-1" d="M83.36,25c0-2.75,1.62-4.49,4.15-4.49s4.16,1.74,4.16,4.49-1.61,4.48-4.16,4.48S83.36,27.8,83.36,25Zm6.47,0c0-1.89-.86-3-2.32-3s-2.32,1.13-2.32,3,.87,3,2.32,3S89.83,26.94,89.83,25Z" transform="translate(-1 -0.78)"/><path class="cls-1" d="M93.15,20.66h1.71v1.49h0A2.1,2.1,0,0,1,97,20.57a2.37,2.37,0,0,1,.61.07v1.68a2.45,2.45,0,0,0-.8-.11,1.81,1.81,0,0,0-1.88,2v5.19H93.15Z" transform="translate(-1 -0.78)"/><path class="cls-1" d="M105.91,26.84c-.25,1.59-1.79,2.68-3.77,2.68-2.55,0-4.13-1.7-4.13-4.44s1.59-4.53,4-4.53,4,1.67,4,4.32v.62H99.82v.11a2.29,2.29,0,0,0,2.36,2.48,2,2,0,0,0,2-1.24Zm-6.08-2.61h4.38A2.1,2.1,0,0,0,102.06,22,2.22,2.22,0,0,0,99.83,24.23Z" transform="translate(-1 -0.78)"/></g><g id="_Gruppe_4" data-name="&lt;Gruppe&gt;"><path class="cls-1" d="M38.24,14.14h-3.6V8.37h.9v5h2.7Z" transform="translate(-1 -0.78)"/><path class="cls-1" d="M39.15,12.91c0-.78.58-1.23,1.62-1.3L42,11.54v-.37c0-.46-.31-.72-.9-.72s-.81.17-.9.48h-.83c.08-.75.79-1.23,1.77-1.23s1.71.55,1.71,1.47v3H42v-.61h-.06a1.46,1.46,0,0,1-1.31.68A1.31,1.31,0,0,1,39.15,12.91Zm2.8-.37v-.37l-1.07.07c-.6,0-.87.25-.87.63s.34.62.81.62A1,1,0,0,0,42,12.54Z" transform="translate(-1 -0.78)"/><path class="cls-1" d="M43.93,12c0-1.37.71-2.24,1.81-2.24a1.42,1.42,0,0,1,1.33.76h.07V8.09H48v6.05h-.83v-.69H47.1a1.49,1.49,0,0,1-1.36.76C44.63,14.21,43.93,13.34,43.93,12Zm.89,0c0,.93.43,1.48,1.16,1.48s1.17-.56,1.17-1.47S46.7,10.49,46,10.49,44.82,11.05,44.82,12Z" transform="translate(-1 -0.78)"/><path class="cls-1" d="M53.09,13a1.78,1.78,0,0,1-1.89,1.26,2,2,0,0,1-2-2.25,2,2,0,0,1,2-2.28c1.21,0,1.94.83,1.94,2.2v.3H50.06v.05a1.15,1.15,0,0,0,1.16,1.24,1,1,0,0,0,1-.52Zm-3-1.41h2.2a1,1,0,0,0-1.07-1.12A1.11,1.11,0,0,0,50.06,11.56Z" transform="translate(-1 -0.78)"/><path class="cls-1" d="M54.29,9.79h.83v.69h.06a1.32,1.32,0,0,1,1.3-.78A1.42,1.42,0,0,1,58,11.32v2.82h-.86v-2.6c0-.7-.3-1-.94-1a1,1,0,0,0-1,1.11v2.54h-.86Z" transform="translate(-1 -0.78)"/><path class="cls-1" d="M61.57,8.5A.53.53,0,0,1,62.12,8a.53.53,0,0,1,.56.53.53.53,0,0,1-.56.52A.52.52,0,0,1,61.57,8.5Zm.13,1.29h.85v4.35H61.7Z" transform="translate(-1 -0.78)"/><path class="cls-1" d="M63.94,9.79h.82v.7h.07a1.31,1.31,0,0,1,2.41,0h.07a1.41,1.41,0,0,1,1.32-.79A1.3,1.3,0,0,1,70,11.14v3h-.86V11.37c0-.59-.28-.88-.84-.88a.88.88,0,0,0-.92.91v2.74h-.85V11.28a.75.75,0,0,0-.83-.79.94.94,0,0,0-.92,1v2.66h-.86Z" transform="translate(-1 -0.78)"/></g></svg>