<svg id="Ebene_1" data-name="Ebene 1" xmlns="http://www.w3.org/2000/svg" xmlns:xlink="http://www.w3.org/1999/xlink" viewBox="0 0 113 36.61"><defs><style>.cls-1,.cls-5{fill:#fff;}.cls-2{fill:#5bc8f3;}.cls-3{fill:url(#linear-gradient);}.Graphic-Style-2{fill:url(#linear-gradient-2);}.cls-4{fill:url(#linear-gradient-3);}.cls-5{stroke:#fff;stroke-miterlimit:10;stroke-width:0.2px;}</style><linearGradient id="linear-gradient" x1="27.03" y1="19.4" x2="6.79" y2="19.4" gradientUnits="userSpaceOnUse"><stop offset="0" stop-color="#ffdf00"/><stop offset="0.41" stop-color="#fbbc0e"/><stop offset="0.78" stop-color="#f9a418"/><stop offset="1" stop-color="#f89b1c"/></linearGradient><linearGradient id="linear-gradient-2" x1="21.77" y1="21.31" x2="2.74" y2="40.35" gradientUnits="userSpaceOnUse"><stop offset="0" stop-color="#ee4447"/><stop offset="1" stop-color="#c5166c"/></linearGradient><linearGradient id="linear-gradient-3" x1="2.66" y1="-1.64" x2="18.2" y2="13.9" gradientUnits="userSpaceOnUse"><stop offset="0" stop-color="#269e6f"/><stop offset="0.05" stop-color="#2ba06f"/><stop offset="0.47" stop-color="#53b26b"/><stop offset="0.8" stop-color="#6bbd69"/><stop offset="1" stop-color="#74c168"/></linearGradient></defs><title>logo_googleplay_store</title><rect width="113" height="36.61" rx="5.28" ry="5.28"/><path class="cls-1" d="M58,20.86a3.56,3.56,0,1,0,3.58,3.56A3.51,3.51,0,0,0,58,20.86Zm0,5.72a2.17,2.17,0,1,1,2-2.16A2.07,2.07,0,0,1,58,26.58Zm-7.79-5.72a3.56,3.56,0,1,0,3.57,3.56A3.51,3.51,0,0,0,50.24,20.86Zm0,5.72a2.17,2.17,0,1,1,2-2.16A2.06,2.06,0,0,1,50.24,26.58ZM41,22v1.51h3.61a3.16,3.16,0,0,1-.82,1.9A3.69,3.69,0,0,1,41,26.47a4,4,0,0,1,0-8,3.88,3.88,0,0,1,2.72,1.08l1.06-1.06A5.22,5.22,0,0,0,41,16.92,5.53,5.53,0,1,0,41,28a5.05,5.05,0,0,0,3.85-1.55,5,5,0,0,0,1.31-3.53,5.35,5.35,0,0,0-.08-.95Zm37.92,1.18a3.31,3.31,0,0,0-3-2.27,3.39,3.39,0,0,0-3.36,3.56A3.48,3.48,0,0,0,76,28a3.53,3.53,0,0,0,3-1.58l-1.21-.81a2,2,0,0,1-1.75,1,1.82,1.82,0,0,1-1.73-1.08l4.76-2ZM74,24.31a2,2,0,0,1,1.87-2.07,1.39,1.39,0,0,1,1.32.75Zm-3.87,3.46h1.57V17.3H70.16ZM67.6,21.66h0a2.47,2.47,0,0,0-1.88-.8,3.56,3.56,0,0,0,0,7.12,2.44,2.44,0,0,0,1.88-.81h0v.51c0,1.37-.73,2.09-1.9,2.09a2,2,0,0,1-1.79-1.26l-1.36.56a3.37,3.37,0,0,0,3.15,2.11c1.83,0,3.39-1.08,3.39-3.71V21.08H67.6Zm-1.79,4.92a2.17,2.17,0,0,1,0-4.32,2,2,0,0,1,1.9,2.17A2,2,0,0,1,65.81,26.58ZM86.22,17.3H82.47V27.77H84v-4h2.18a3.25,3.25,0,1,0,0-6.5Zm0,5H84V18.76h2.22a1.79,1.79,0,1,1,0,3.58Zm9.65-1.5a3,3,0,0,0-2.79,1.6l1.39.58a1.47,1.47,0,0,1,1.43-.76,1.51,1.51,0,0,1,1.64,1.34v.11a3.48,3.48,0,0,0-1.63-.4c-1.5,0-3,.82-3,2.35a2.42,2.42,0,0,0,2.6,2.3,2.2,2.2,0,0,0,2-1h.06v.81h1.51v-4A2.88,2.88,0,0,0,95.91,20.84Zm-.19,5.74c-.51,0-1.22-.26-1.22-.89,0-.81.88-1.12,1.65-1.12a2.81,2.81,0,0,1,1.43.35A1.9,1.9,0,0,1,95.72,26.58Zm8.86-5.51-1.79,4.54h-.06l-1.85-4.54H99.19L102,27.41l-1.59,3.53H102l4.29-9.87Zm-14.07,6.7h1.56V17.3H90.51Z" transform="translate(-1 -1.09)"/><path class="cls-2" d="M9.74,9a1.66,1.66,0,0,0-.39,1.18V28.64a1.66,1.66,0,0,0,.39,1.18l.06.06L20.16,19.52v-.25L9.8,8.91Z" transform="translate(-1 -1.09)"/><path class="cls-3" d="M23.61,23l-3.45-3.45v-.25l3.45-3.45.08,0,4.09,2.33a1.27,1.27,0,0,1,0,2.41l-4.09,2.33Z" transform="translate(-1 -1.09)"/><path class="Graphic-Style-2" d="M23.69,22.93l-3.53-3.54L9.74,29.82a1.36,1.36,0,0,0,1.74.05l12.21-6.94" transform="translate(-1 -1.09)"/><path class="cls-4" d="M23.69,15.86,11.48,8.92A1.36,1.36,0,0,0,9.74,9L20.16,19.39Z" transform="translate(-1 -1.09)"/><path class="cls-5" d="M37,13.65a1.43,1.43,0,0,1-.93-.31,1.63,1.63,0,0,1-.55-.86l.59-.24A.92.92,0,0,0,37,13a.85.85,0,0,0,.69-.29A1.2,1.2,0,0,0,38,12V8.51h.65v3.43a1.69,1.69,0,0,1-.45,1.26A1.58,1.58,0,0,1,37,13.65Z" transform="translate(-1 -1.09)"/><path class="cls-5" d="M42.61,9.13H40.32v1.59h2.06v.61H40.32v1.59h2.29v.62H39.68v-5h2.93Z" transform="translate(-1 -1.09)"/><path class="cls-5" d="M45.33,13.54h-.65V9.13h-1.4V8.51h3.45v.62h-1.4Z" transform="translate(-1 -1.09)"/><path class="cls-5" d="M47.27,13.54v-.68l2.67-3.73H47.38V8.51h3.31v.68L48,12.92h2.7v.62Z" transform="translate(-1 -1.09)"/><path class="cls-5" d="M53.35,13.54h-.64V9.13h-1.4V8.51h3.45v.62H53.35Z" transform="translate(-1 -1.09)"/><path class="cls-5" d="M57.25,13.54v-5h1.82a1.48,1.48,0,0,1,1,.39,1.26,1.26,0,0,1,.43,1,1.11,1.11,0,0,1-.18.63,1.2,1.2,0,0,1-.5.42v0a1.29,1.29,0,0,1,.61.44,1.14,1.14,0,0,1,.24.72,1.31,1.31,0,0,1-.45,1,1.56,1.56,0,0,1-1.07.41Zm.65-2.87h1.17a.75.75,0,0,0,.59-.25.78.78,0,0,0,.22-.52.74.74,0,0,0-.22-.53.71.71,0,0,0-.56-.24H57.9Zm0,2.25h1.3a.78.78,0,0,0,.6-.26.85.85,0,0,0,.23-.57.85.85,0,0,0-.86-.82H57.9Z" transform="translate(-1 -1.09)"/><path class="cls-5" d="M64.49,9.13H62.2v1.59h2.07v.61H62.2v1.59h2.29v.62H61.56v-5h2.93Z" transform="translate(-1 -1.09)"/><path class="cls-5" d="M65.5,13.54v-5h.65v5Z" transform="translate(-1 -1.09)"/></svg>